<?xml version="1.0" encoding="UTF-8" standalone="no"?>
<!DOCTYPE svg PUBLIC "-//W3C//DTD SVG 1.1//EN"
 "http://www.w3.org/Graphics/SVG/1.1/DTD/svg11.dtd">
<!-- Generated by graphviz version 2.40.1 (20161225.0304)
 -->
<!-- Title: %3 Pages: 1 -->
<svg width="999pt" height="203pt"
 viewBox="0.00 0.00 998.50 202.65" xmlns="http://www.w3.org/2000/svg" xmlns:xlink="http://www.w3.org/1999/xlink">
<g id="graph0" class="graph" transform="scale(1 1) rotate(0) translate(4 198.6518)">
<title>%3</title>
<polygon fill="#ffffff" stroke="transparent" points="-4,4 -4,-198.6518 994.5,-198.6518 994.5,4 -4,4"/>
<!-- front&#45;first -->
<g id="node1" class="node">
<title>front&#45;first</title>
<polygon fill="#d3d3d3" stroke="#000000" points="140,-122.0746 89,-122.0746 89,-104.0746 140,-104.0746 140,-122.0746"/>
<text text-anchor="middle" x="114.5" y="-110.8746" font-family="Times,serif" font-size="9.00" fill="#000000">front&#45;first</text>
</g>
<!-- 0 -->
<g id="node13" class="node">
<title>0</title>
<ellipse fill="#add8e6" stroke="#000000" cx="75.5" cy="-24.7487" rx="14.7" ry="14.7"/>
<text text-anchor="middle" x="75.5" y="-22.5487" font-family="Times,serif" font-size="9.00" fill="#000000">0</text>
</g>
<!-- front&#45;first&#45;&gt;0 -->
<g id="edge14" class="edge">
<title>front&#45;first&#45;&gt;0</title>
<path fill="none" stroke="#ff0000" stroke-width=".2958" d="M110.4732,-103.9549C104.6663,-90.8036 93.7501,-66.081 85.6518,-47.7402"/>
<polygon fill="#ff0000" stroke="#ff0000" stroke-width=".2958" points="88.8455,-46.3081 81.6045,-38.5739 82.442,-49.1356 88.8455,-46.3081"/>
</g>
<!-- 6471 -->
<g id="node16" class="node">
<title>6471</title>
<ellipse fill="#ffffff" stroke="#000000" cx="532.5" cy="-24.7487" rx="25" ry="25"/>
<text text-anchor="middle" x="532.5" y="-22.5487" font-family="Times,serif" font-size="9.00" fill="#000000">6471</text>
</g>
<!-- front&#45;first&#45;&gt;6471 -->
<g id="edge1" class="edge">
<title>front&#45;first&#45;&gt;6471</title>
<path fill="none" stroke="#ff0000" stroke-width=".1061" d="M123.1297,-103.887C129.5235,-97.6699 138.7808,-89.8283 148.5,-85.4975 210.9593,-57.666 415.1008,-35.8352 497.5205,-27.941"/>
<polygon fill="#ff0000" stroke="#ff0000" stroke-width=".1061" points="498.009,-31.4105 507.6348,-26.9839 497.3495,-24.4416 498.009,-31.4105"/>
</g>
<!-- front&#45;second -->
<g id="node2" class="node">
<title>front&#45;second</title>
<polygon fill="#d3d3d3" stroke="#000000" points="976.5,-194.6518 914.5,-194.6518 914.5,-176.6518 976.5,-176.6518 976.5,-194.6518"/>
<text text-anchor="middle" x="945.5" y="-183.4518" font-family="Times,serif" font-size="9.00" fill="#000000">front&#45;second</text>
</g>
<!-- front&#45;has_apple -->
<g id="node3" class="node">
<title>front&#45;has_apple</title>
<polygon fill="#d3d3d3" stroke="#000000" points="647.5,-122.0746 575.5,-122.0746 575.5,-104.0746 647.5,-104.0746 647.5,-122.0746"/>
<text text-anchor="middle" x="611.5" y="-110.8746" font-family="Times,serif" font-size="9.00" fill="#000000">front&#45;has_apple</text>
</g>
<!-- front&#45;has_apple&#45;&gt;6471 -->
<g id="edge2" class="edge">
<title>front&#45;has_apple&#45;&gt;6471</title>
<path fill="none" stroke="#ff0000" stroke-width=".2862" d="M603.3432,-103.9549C592.335,-91.6472 572.2626,-69.2053 556.2871,-51.3439"/>
<polygon fill="#ff0000" stroke="#ff0000" stroke-width=".2862" points="558.558,-48.6328 549.2826,-43.5125 553.3404,-53.2994 558.558,-48.6328"/>
</g>
<!-- right&#45;first -->
<g id="node4" class="node">
<title>right&#45;first</title>
<polygon fill="#d3d3d3" stroke="#000000" points="715.5,-122.0746 665.5,-122.0746 665.5,-104.0746 715.5,-104.0746 715.5,-122.0746"/>
<text text-anchor="middle" x="690.5" y="-110.8746" font-family="Times,serif" font-size="9.00" fill="#000000">right&#45;first</text>
</g>
<!-- right&#45;first&#45;&gt;6471 -->
<g id="edge3" class="edge">
<title>right&#45;first&#45;&gt;6471</title>
<path fill="none" stroke="#ff0000" stroke-width=".1779" d="M680.542,-103.9906C673.9957,-98.2793 665.0825,-90.9805 656.5,-85.4975 626.9431,-66.6147 590.6684,-49.4731 565.0087,-38.2502"/>
<polygon fill="#ff0000" stroke="#ff0000" stroke-width=".1779" points="566.2988,-34.9949 555.7303,-34.2474 563.5259,-41.4223 566.2988,-34.9949"/>
</g>
<!-- right&#45;second -->
<g id="node5" class="node">
<title>right&#45;second</title>
<polygon fill="#d3d3d3" stroke="#000000" points="795,-122.0746 734,-122.0746 734,-104.0746 795,-104.0746 795,-122.0746"/>
<text text-anchor="middle" x="764.5" y="-110.8746" font-family="Times,serif" font-size="9.00" fill="#000000">right&#45;second</text>
</g>
<!-- right&#45;second&#45;&gt;6471 -->
<g id="edge4" class="edge">
<title>right&#45;second&#45;&gt;6471</title>
<path fill="none" stroke="#00ff00" stroke-width=".2619" stroke-dasharray="1,5" d="M753.1649,-103.9003C745.4493,-98.0068 734.8043,-90.5389 724.5,-85.4975 671.8878,-59.7567 605.9108,-41.6901 566.5926,-32.2772"/>
<polygon fill="#00ff00" stroke="#00ff00" stroke-width=".2619" points="567.2542,-28.8374 556.7192,-29.9617 565.6559,-35.6526 567.2542,-28.8374"/>
</g>
<!-- right&#45;has_apple -->
<g id="node6" class="node">
<title>right&#45;has_apple</title>
<polygon fill="#d3d3d3" stroke="#000000" points="71,-122.0746 0,-122.0746 0,-104.0746 71,-104.0746 71,-122.0746"/>
<text text-anchor="middle" x="35.5" y="-110.8746" font-family="Times,serif" font-size="9.00" fill="#000000">right&#45;has_apple</text>
</g>
<!-- right&#45;has_apple&#45;&gt;0 -->
<g id="edge13" class="edge">
<title>right&#45;has_apple&#45;&gt;0</title>
<path fill="none" stroke="#00ff00" stroke-width=".4604" d="M39.63,-103.9549C45.5858,-90.8036 56.7819,-66.081 65.0879,-47.7402"/>
<polygon fill="#00ff00" stroke="#00ff00" stroke-width=".4604" points="68.3019,-49.1272 69.239,-38.5739 61.9253,-46.2394 68.3019,-49.1272"/>
</g>
<!-- right&#45;has_apple&#45;&gt;6471 -->
<g id="edge5" class="edge">
<title>right&#45;has_apple&#45;&gt;6471</title>
<path fill="none" stroke="#ff0000" stroke-width=".7825" d="M47.1033,-103.8602C55.5828,-97.6304 67.6291,-89.7848 79.5,-85.4975 156.7631,-57.593 405.3769,-35.0877 497.6238,-27.5017"/>
<polygon fill="#ff0000" stroke="#ff0000" stroke-width=".7825" points="498.1422,-30.9711 507.8253,-26.6714 497.5743,-23.9942 498.1422,-30.9711"/>
</g>
<!-- left&#45;first -->
<g id="node7" class="node">
<title>left&#45;first</title>
<polygon fill="#d3d3d3" stroke="#000000" points="529,-194.6518 484,-194.6518 484,-176.6518 529,-176.6518 529,-194.6518"/>
<text text-anchor="middle" x="506.5" y="-183.4518" font-family="Times,serif" font-size="9.00" fill="#000000">left&#45;first</text>
</g>
<!-- 9674 -->
<g id="node14" class="node">
<title>9674</title>
<ellipse fill="#ffffff" stroke="#000000" cx="532.5" cy="-113.0746" rx="25" ry="25"/>
<text text-anchor="middle" x="532.5" y="-110.8746" font-family="Times,serif" font-size="9.00" fill="#000000">9674</text>
</g>
<!-- left&#45;first&#45;&gt;9674 -->
<g id="edge15" class="edge">
<title>left&#45;first&#45;&gt;9674</title>
<path fill="none" stroke="#00ff00" stroke-width=".1339" d="M509.7929,-176.4599C512.5619,-168.7304 516.696,-157.1904 520.6808,-146.067"/>
<polygon fill="#00ff00" stroke="#00ff00" stroke-width=".1339" points="524.0286,-147.0998 524.1062,-136.5053 517.4387,-144.739 524.0286,-147.0998"/>
</g>
<!-- left&#45;first&#45;&gt;6471 -->
<g id="edge6" class="edge">
<title>left&#45;first&#45;&gt;6471</title>
<path fill="none" stroke="#00ff00" stroke-width=".3592" stroke-dasharray="1,5" d="M503.8168,-176.6356C498.9577,-158.8748 489.96,-118.2421 498.5,-85.4975 501.3662,-74.5079 506.7092,-63.401 512.3247,-53.7436"/>
<polygon fill="#00ff00" stroke="#00ff00" stroke-width=".3592" points="515.4579,-55.3303 517.72,-44.9798 509.497,-51.6605 515.4579,-55.3303"/>
</g>
<!-- left&#45;second -->
<g id="node8" class="node">
<title>left&#45;second</title>
<polygon fill="#d3d3d3" stroke="#000000" points="896.5,-194.6518 840.5,-194.6518 840.5,-176.6518 896.5,-176.6518 896.5,-194.6518"/>
<text text-anchor="middle" x="868.5" y="-183.4518" font-family="Times,serif" font-size="9.00" fill="#000000">left&#45;second</text>
</g>
<!-- 10068 -->
<g id="node15" class="node">
<title>10068</title>
<ellipse fill="#ffffff" stroke="#000000" cx="840.5" cy="-113.0746" rx="27.6545" ry="27.6545"/>
<text text-anchor="middle" x="840.5" y="-110.8746" font-family="Times,serif" font-size="9.00" fill="#000000">10068</text>
</g>
<!-- left&#45;second&#45;&gt;10068 -->
<g id="edge17" class="edge">
<title>left&#45;second&#45;&gt;10068</title>
<path fill="none" stroke="#00ff00" stroke-width=".279" d="M864.9538,-176.4599C862.1822,-169.2758 858.1406,-158.7998 854.1385,-148.4261"/>
<polygon fill="#00ff00" stroke="#00ff00" stroke-width=".279" points="857.3765,-147.0952 850.5117,-139.0253 850.8457,-149.6148 857.3765,-147.0952"/>
</g>
<!-- left&#45;second&#45;&gt;6471 -->
<g id="edge7" class="edge">
<title>left&#45;second&#45;&gt;6471</title>
<path fill="none" stroke="#00ff00" stroke-width=".4829" stroke-dasharray="1,5" d="M873.0986,-176.6356C882.1856,-157.4078 899.7222,-111.9745 877.5,-85.4975 838.1174,-38.5744 647.0714,-27.8825 567.4484,-25.4565"/>
<polygon fill="#00ff00" stroke="#00ff00" stroke-width=".4829" points="567.5149,-21.9571 557.4213,-25.1772 567.3199,-28.9544 567.5149,-21.9571"/>
</g>
<!-- left&#45;has_apple -->
<g id="node9" class="node">
<title>left&#45;has_apple</title>
<polygon fill="#d3d3d3" stroke="#000000" points="990.5,-122.0746 924.5,-122.0746 924.5,-104.0746 990.5,-104.0746 990.5,-122.0746"/>
<text text-anchor="middle" x="957.5" y="-110.8746" font-family="Times,serif" font-size="9.00" fill="#000000">left&#45;has_apple</text>
</g>
<!-- left&#45;has_apple&#45;&gt;6471 -->
<g id="edge8" class="edge">
<title>left&#45;has_apple&#45;&gt;6471</title>
<path fill="none" stroke="#00ff00" stroke-width=".1741" d="M944.9727,-103.9784C935.8523,-97.8043 922.9645,-89.9766 910.5,-85.4975 789.6729,-42.0778 635.9717,-29.5957 567.8003,-26.0841"/>
<polygon fill="#00ff00" stroke="#00ff00" stroke-width=".1741" points="567.7683,-22.5786 557.6117,-25.5942 567.4321,-29.5705 567.7683,-22.5786"/>
</g>
<!-- apple_horizontal_rel -->
<g id="node10" class="node">
<title>apple_horizontal_rel</title>
<polygon fill="#d3d3d3" stroke="#000000" points="247,-122.0746 158,-122.0746 158,-104.0746 247,-104.0746 247,-122.0746"/>
<text text-anchor="middle" x="202.5" y="-110.8746" font-family="Times,serif" font-size="9.00" fill="#000000">apple_horizontal_rel</text>
</g>
<!-- apple_horizontal_rel&#45;&gt;6471 -->
<g id="edge9" class="edge">
<title>apple_horizontal_rel&#45;&gt;6471</title>
<path fill="none" stroke="#ff0000" stroke-width=".1423" d="M217.3236,-104.0085C227.6934,-98.009 242.0432,-90.3766 255.5,-85.4975 339.8974,-54.8971 444.5997,-37.0684 497.8628,-29.3422"/>
<polygon fill="#ff0000" stroke="#ff0000" stroke-width=".1423" points="498.3993,-32.8012 507.8084,-27.9308 497.4158,-25.8706 498.3993,-32.8012"/>
</g>
<!-- apple_vertical_rel -->
<g id="node11" class="node">
<title>apple_vertical_rel</title>
<polygon fill="#d3d3d3" stroke="#000000" points="344,-122.0746 265,-122.0746 265,-104.0746 344,-104.0746 344,-122.0746"/>
<text text-anchor="middle" x="304.5" y="-110.8746" font-family="Times,serif" font-size="9.00" fill="#000000">apple_vertical_rel</text>
</g>
<!-- apple_vertical_rel&#45;&gt;6471 -->
<g id="edge10" class="edge">
<title>apple_vertical_rel&#45;&gt;6471</title>
<path fill="none" stroke="#ff0000" stroke-width=".3066" d="M319.1405,-103.8881C328.6902,-98.1359 341.5557,-90.83 353.5,-85.4975 402.6672,-63.5467 462.3386,-44.7792 498.8531,-34.1313"/>
<polygon fill="#ff0000" stroke="#ff0000" stroke-width=".3066" points="499.8708,-37.4806 508.51,-31.3475 497.9318,-30.7545 499.8708,-37.4806"/>
</g>
<!-- head_apple_distance -->
<g id="node12" class="node">
<title>head_apple_distance</title>
<polygon fill="#d3d3d3" stroke="#000000" points="451,-122.0746 362,-122.0746 362,-104.0746 451,-104.0746 451,-122.0746"/>
<text text-anchor="middle" x="406.5" y="-110.8746" font-family="Times,serif" font-size="9.00" fill="#000000">head_apple_distance</text>
</g>
<!-- head_apple_distance&#45;&gt;6471 -->
<g id="edge11" class="edge">
<title>head_apple_distance&#45;&gt;6471</title>
<path fill="none" stroke="#00ff00" stroke-width=".266" stroke-dasharray="1,5" d="M419.5096,-103.9549C439.1684,-90.1741 476.9519,-63.6879 503.3934,-45.1524"/>
<polygon fill="#00ff00" stroke="#00ff00" stroke-width=".266" points="505.7037,-47.8072 511.8832,-39.2011 501.6856,-42.0753 505.7037,-47.8072"/>
</g>
<!-- 9674&#45;&gt;6471 -->
<g id="edge16" class="edge">
<title>9674&#45;&gt;6471</title>
<path fill="none" stroke="#00ff00" stroke-width=".1367" d="M532.5,-88.0002C532.5,-79.255 532.5,-69.2732 532.5,-59.8638"/>
<polygon fill="#00ff00" stroke="#00ff00" stroke-width=".1367" points="536.0001,-59.5801 532.5,-49.5801 529.0001,-59.5802 536.0001,-59.5801"/>
</g>
<!-- 10068&#45;&gt;6471 -->
<g id="edge18" class="edge">
<title>10068&#45;&gt;6471</title>
<path fill="none" stroke="#00ff00" stroke-width=".5262" d="M819.7901,-94.8146C815.0145,-91.3055 809.7793,-87.9617 804.5,-85.4975 724.5522,-48.1805 620.4975,-33.2034 567.2387,-27.6741"/>
<polygon fill="#00ff00" stroke="#00ff00" stroke-width=".5262" points="567.5822,-24.1911 557.2864,-26.6904 566.8936,-31.1572 567.5822,-24.1911"/>
</g>
<!-- 6471&#45;&gt;6471 -->
<g id="edge12" class="edge">
<title>6471&#45;&gt;6471</title>
<path fill="none" stroke="#ff0000" stroke-width=".3416" d="M552.288,-40.2175C564.1163,-43.655 575.2487,-38.4987 575.2487,-24.7487 575.2487,-15.0808 569.745,-9.6614 562.3655,-8.4907"/>
<polygon fill="#ff0000" stroke="#ff0000" stroke-width=".3416" points="561.9841,-5.0097 552.288,-9.28 562.5308,-11.9884 561.9841,-5.0097"/>
</g>
</g>
</svg>
